{"title":"Jungle Book (2016) 1080p Blu-ray x264 DTS 5.1 Hindi- AAC English","uid":15531118,"size":9878856284,"categoryP":"video","categoryS":"hd___movies","magnet":"?xt=urn:btih:2eb539d17ade4fbe073a634f5f5629c1380a6b35&amp;dn=Jungle+Book+%282016%29+1080p+Blu-ray+x264+DTS+5.1+Hindi-+AAC+English&amp;tr=udp%3A%2F%2Ftracker.leechers-paradise.org%3A6969&amp;tr=udp%3A%2F%2Fzer0day.ch%3A1337&amp;tr=udp%3A%2F%2Fopen.demonii.com%3A1337&amp;tr=udp%3A%2F%2Ftracker.coppersurfer.tk%3A6969&amp;tr=udp%3A%2F%2Fexodus.desync.com%3A6969","seeders":2,"leechers":4,"uploader":"SaM","files":3,"time":1470830766,"description":"\nHQ 1080p Blu-ray Rip x264\r\n\r\nDTS 5.1 Hindi &amp; AAC 5.1 English\r\n\r\nArabic, English &amp; impaired Subtitles\r\n \nhttp://extraimago.com/image/wjrO \nhttp://extraimago.com/image/wjrS \nhttp://extraimago.com/image/wjrq \nhttp://extraimago.com/image/wjry \nhttp://extraimago.com/image/wjrL \nhttp://extraimago.com/image/wjrQ \nhttp://extraimago.com/image/wjrR \nhttp://extraimago.com/image/wjrm \nhttp://extraimago.com/image/wjri \nhttp://extraimago.com/image/wjrl \nhttp://extraimago.com/image/wjrI \nhttp://extraimago.com/image/wjrd \nhttp://extraimago.com/image/wjrh \nhttp://extraimago.com/image/wjr3 \nhttp://extraimago.com/image/wjr9\r\n\r\nSpecs:\r\n\r\nHindi Center Channel reconstructed from English Lossless wave and Line hindi Audio.\r\nYou will have 3 parts with partial english audio.\r\n\r\n50 seconds in the middle\r\n10 mins of the final outro after the main movie ends.\r\n\r\nI have tried to sync as perfectly as possible.\r\n\r\nSource: BD50 @ DDR\r\n\r\nFormat : Matroska\r\nFile size : 9.09 GiB\r\nDuration : 1h 45mn\r\nOverall bit rate : 12.3 Mbps\r\n\r\n\r\nVideo\r\nFormat : AVC\r\nFormat/Info : Advanced Video Codec\r\nFormat profile :   \r\nFormat settings, CABAC : Yes\r\nFormat settings, ReFrames : 4 frames\r\nCodec ID : V_MPEG4/ISO/AVC\r\nDuration : 1h 45mn\r\nBit rate : 10.6 Mbps\r\nWidth : 1 920 pixels\r\nHeight : 1 040 pixels\r\nDisplay aspect ratio : 1.85:1\r\nFrame rate mode : Constant\r\nFrame rate : 23.976 (24000/1001) fps\r\ncolor space : YUV\r\nChroma subsampling : 4:2:0\r\nBit depth : 8 bits\r\nScan type : Progressive\r\nBits/(Pixel*Frame) : 0.221\r\nStream size : 7.82 GiB (86%)\r\ncolor primaries : BT.709\r\nTransfer characteristics : BT.709\r\nMatrix coefficients : BT.709\r\n\r\nAudio #1\r\nIFormat : DTS\r\nFormat/Info : Digital Theater Systems\r\nMode : 16\r\nFormat settings, Endianness : Big\r\nCodec ID : A_DTS\r\nDuration : 1h 45mn\r\nBit rate mode : Constant\r\nBit rate : 1 509 Kbps\r\nChannel(s) : 6 channels\r\nChannel positions : Front: L C R, Side: L R, LFE\r\nSampling rate : 48.0 KHz\r\nFrame rate : 93.750 fps (512 spf)\r\nBit depth : 24 bits\r\nCompression mode : Lossy\r\nStream size : 1.12 GiB (12%)\r\nLanguage : Hindi\r\nDefault : Yes\r\nForced : No\r\n\r\n\r\nAudio #2\r\nFormat : AAC\r\nFormat/Info : Advanced Audio Codec\r\nFormat profile : LC\r\nCodec ID : A_AAC\r\nDuration : 1h 45mn\r\nBit rate : 192 Kbps\r\nChannel(s) : 6 channels\r\nChannel positions : Front: L C R, Side: L R, LFE\r\nSampling rate : 48.0 KHz\r\nFrame rate : 46.875 fps (1024 spf)\r\nCompression mode : Lossy\r\nDelay relative to video : 9ms\r\nStream size : 145 MiB (2%)\r\nLanguage : English\r\nDefault : No\r\nForced : No\r\n\r\n\r\nChapters : YES\r\n\r\nSAMPLE Included","torrent":{"xt":"urn:btih:2eb539d17ade4fbe073a634f5f5629c1380a6b35","amp;dn":"Jungle+Book+%282016%29+1080p+Blu-ray+x264+DTS+5.1+Hindi-+AAC+English","amp;tr":["udp%3A%2F%2Ftracker.leechers-paradise.org%3A6969","udp%3A%2F%2Fzer0day.ch%3A1337","udp%3A%2F%2Fopen.demonii.com%3A1337","udp%3A%2F%2Ftracker.coppersurfer.tk%3A6969","udp%3A%2F%2Fexodus.desync.com%3A6969"],"infoHash":"2eb539d17ade4fbe073a634f5f5629c1380a6b35","infoHashBuffer":{"type":"Buffer","data":[46,181,57,209,122,222,79,190,7,58,99,79,95,86,41,193,56,10,107,53]},"announce":[],"urlList":[]}}